<svg id="clock" xmlns="http://www.w3.org/2000/svg" width="23.63" height="23.63">
    <defs>
        <style>
            .cls-1{fill:#e0a831}
        </style>
    </defs>
    <g id="Group_3398" data-name="Group 3398" transform="translate(7.52 5.372)">
        <g id="Group_3397" data-name="Group 3397">
            <path id="Path_12644" data-name="Path 12644" class="cls-1" d="M167.949 116.395a1.074 1.074 0 0 0-1.074 1.074v5.011h-2.863a1.074 1.074 0 1 0 0 2.148h3.937a1.074 1.074 0 0 0 1.074-1.074v-6.085a1.074 1.074 0 0 0-1.074-1.074z" transform="translate(-162.938 -116.395)"/>
        </g>
    </g>
    <g id="Group_3400" data-name="Group 3400">
        <g id="Group_3399" data-name="Group 3399">
            <path id="Path_12645" data-name="Path 12645" class="cls-1" d="M11.815 0A11.815 11.815 0 1 0 23.63 11.815 11.828 11.828 0 0 0 11.815 0zm0 21.482a9.667 9.667 0 1 1 9.667-9.667 9.678 9.678 0 0 1-9.667 9.667z"/>
        </g>
    </g>
</svg>
