<svg data-name="Component 143 – 2" xmlns="http://www.w3.org/2000/svg" width="21.748" height="22.074">
    <path data-name="Rectangle 2082" transform="translate(6.215 3.074)" style="fill:#fff" d="M0 0h13v19H0z"/>
    <path d="M18.82 0H2.933A2.931 2.931 0 0 0 0 2.931v15.887a2.931 2.931 0 0 0 2.931 2.931h7.835l.013-7.772H8.762a.476.476 0 0 1-.476-.475L8.276 11a.476.476 0 0 1 .476-.478h2.015V8.1a3.955 3.955 0 0 1 4.223-4.341h2.056a.476.476 0 0 1 .476.476v2.113a.476.476 0 0 1-.476.476h-1.262c-1.363 0-1.627.648-1.627 1.6v2.1h2.994a.476.476 0 0 1 .473.533l-.3 2.505a.476.476 0 0 1-.473.42h-2.68l-.013 7.772h4.662a2.931 2.931 0 0 0 2.931-2.931V2.931A2.931 2.931 0 0 0 18.82 0z" transform="translate(-.002)" style="fill:#174eff"/>
</svg>
