<svg xmlns="http://www.w3.org/2000/svg" width="23.026" height="23.026">
    <path data-name="Path 12651" d="M11.513 0A11.513 11.513 0 1 1 0 11.513 11.513 11.513 0 0 1 11.513 0z" style="fill:#2292e6"/>
    <g data-name="Group 3401">
        <path data-name="Path 12650" d="M38.517 35.319a5.491 5.491 0 0 1-1.581.433 2.759 2.759 0 0 0 1.21-1.522 5.509 5.509 0 0 1-1.746.67 2.754 2.754 0 0 0-4.69 2.51 7.812 7.812 0 0 1-5.672-2.876 2.755 2.755 0 0 0 .852 3.674 2.733 2.733 0 0 1-1.246-.345v.035a2.754 2.754 0 0 0 2.208 2.7 2.763 2.763 0 0 1-1.243.048 2.755 2.755 0 0 0 2.571 1.911 5.555 5.555 0 0 1-4.08 1.135A7.826 7.826 0 0 0 37.151 37.1c0-.119 0-.238-.008-.356a5.581 5.581 0 0 0 1.373-1.424z" transform="translate(-19.951 -27.044)" style="fill:#f1f2f2"/>
    </g>
</svg>
